<svg version="1.1" id="Layer_1" xmlns="http://www.w3.org/2000/svg" xmlns:xlink="http://www.w3.org/1999/xlink" x="0px" y="0px"
	 width="100%" viewBox="0 0 420 420" enable-background="new 0 0 420 420" xml:space="preserve">
<path fill="#F0F0F0" opacity="1.000000" stroke="none" 
	d="
M222.000000,421.000000 
	C148.000015,421.000000 74.500015,421.000000 1.000020,421.000000 
	C1.000013,281.000031 1.000013,141.000046 1.000007,1.000057 
	C140.999954,1.000038 280.999908,1.000038 420.999908,1.000019 
	C420.999939,140.999939 420.999939,280.999878 420.999969,420.999908 
	C354.833344,421.000000 288.666656,421.000000 222.000000,421.000000 
M176.000000,350.500000 
	C176.000000,362.580872 176.000000,374.661743 176.000000,386.670288 
	C200.069962,386.670288 223.318985,386.670288 247.208618,386.670288 
	C247.208618,363.307892 247.208618,340.267151 247.208618,316.774658 
	C270.768799,316.774658 293.687836,316.774658 316.733643,316.774658 
	C316.733643,293.058075 316.733643,269.809723 316.733643,245.918060 
	C293.436859,245.918060 270.396362,245.918060 247.283203,245.918060 
	C247.283203,222.690826 247.283203,200.108917 247.283203,176.884399 
	C270.597595,176.884399 293.637787,176.884399 317.132385,176.884399 
	C317.132385,153.325378 317.132385,130.406387 317.132385,106.850876 
	C340.631897,106.850876 363.671570,106.850876 386.683380,106.850876 
	C386.683380,82.956375 386.683380,59.707584 386.683380,36.407406 
	C339.669800,36.407406 292.973969,36.407406 245.818558,36.407406 
	C245.818558,83.059410 245.818558,129.305847 245.818558,175.581604 
	C222.654083,175.581604 199.953812,175.581604 176.796600,175.581604 
	C176.796600,128.918457 176.796600,82.672012 176.796600,36.423317 
	C129.637741,36.423317 82.941811,36.423317 36.343239,36.423317 
	C36.343239,60.097366 36.343239,83.346542 36.343239,107.237038 
	C59.718052,107.237038 82.757179,107.237038 106.249969,107.237038 
	C106.249969,130.798019 106.249969,153.716324 106.249969,177.092514 
	C129.634186,177.092514 152.553314,177.092514 175.623138,177.092514 
	C175.623138,200.261536 175.623138,222.961304 175.623138,246.126205 
	C152.331573,246.126205 129.412689,246.126205 106.393539,246.126205 
	C106.393539,269.962280 106.393539,293.328766 106.393539,317.159576 
	C129.702133,317.159576 152.621292,317.159576 176.000000,317.159576 
	C176.000000,328.247101 176.000000,338.873566 176.000000,350.500000 
z"/>
<path fill="#8F5DCF" opacity="1.000000" stroke="none" 
	d="
M176.000000,350.000000 
	C176.000000,338.873566 176.000000,328.247101 176.000000,317.159576 
	C152.621292,317.159576 129.702133,317.159576 106.393539,317.159576 
	C106.393539,293.328766 106.393539,269.962280 106.393539,246.126205 
	C129.412689,246.126205 152.331573,246.126205 175.623138,246.126205 
	C175.623138,222.961304 175.623138,200.261536 175.623138,177.092514 
	C152.553314,177.092514 129.634186,177.092514 106.249969,177.092514 
	C106.249969,153.716324 106.249969,130.798019 106.249969,107.237038 
	C82.757179,107.237038 59.718052,107.237038 36.343239,107.237038 
	C36.343239,83.346542 36.343239,60.097366 36.343239,36.423317 
	C82.941811,36.423317 129.637741,36.423317 176.796600,36.423317 
	C176.796600,82.672012 176.796600,128.918457 176.796600,175.581604 
	C199.953812,175.581604 222.654083,175.581604 245.818558,175.581604 
	C245.818558,129.305847 245.818558,83.059410 245.818558,36.407406 
	C292.973969,36.407406 339.669800,36.407406 386.683380,36.407406 
	C386.683380,59.707584 386.683380,82.956375 386.683380,106.850876 
	C363.671570,106.850876 340.631897,106.850876 317.132385,106.850876 
	C317.132385,130.406387 317.132385,153.325378 317.132385,176.884399 
	C293.637787,176.884399 270.597595,176.884399 247.283203,176.884399 
	C247.283203,200.108917 247.283203,222.690826 247.283203,245.918060 
	C270.396362,245.918060 293.436859,245.918060 316.733643,245.918060 
	C316.733643,269.809723 316.733643,293.058075 316.733643,316.774658 
	C293.687836,316.774658 270.768799,316.774658 247.208618,316.774658 
	C247.208618,340.267151 247.208618,363.307892 247.208618,386.670288 
	C223.318985,386.670288 200.069962,386.670288 176.000000,386.670288 
	C176.000000,374.661743 176.000000,362.580872 176.000000,350.000000 
z"/>
</svg>